<svg width="77" height="78" viewBox="0 0 77 78" fill="none" xmlns="http://www.w3.org/2000/svg">
<rect opacity="0.4" x="13.5" y="22.5" width="45" height="55" rx="3.5" fill="#1F243C" stroke="#1F243C"/>
<rect x="17.5" y="18.5" width="45" height="55" rx="3.5" fill="white" stroke="#1F243C"/>
<rect x="25" y="30" width="15" height="4" rx="2" fill="#C6CBDE"/>
<rect x="25" y="40" width="29" height="4" rx="2" fill="#C6CBDE"/>
<rect x="25" y="50" width="29" height="4" rx="2" fill="#C6CBDE"/>
<rect x="25" y="60" width="29" height="4" rx="2" fill="#C6CBDE"/>
<path d="M60.5 32C66.8513 32 72 26.8533 72 20.5046C72 14.1559 66.8513 9.00928 60.5 9.00928C54.1487 9.00928 49 14.1559 49 20.5046C49 26.8533 54.1487 32 60.5 32Z" fill="#41D9B5" stroke="#1F243C" stroke-width="1.27778" stroke-miterlimit="10"/>
<path d="M54.0034 21.3687L58.4305 25.8202L67.4419 16.8124" stroke="white" stroke-width="2.77915" stroke-miterlimit="10" stroke-linecap="round" stroke-linejoin="round"/>
<path d="M5 61L6.35045 64.6495L10 66L6.35045 67.3505L5 71L3.64955 67.3505L0 66L3.64955 64.6495L5 61Z" fill="#9F9AE9"/>
<path d="M72 35L73.3505 38.6495L77 40L73.3505 41.3505L72 45L70.6495 41.3505L67 40L70.6495 38.6495L72 35Z" fill="#F8E485"/>
<path d="M39.3135 0L40.934 4.37946L45.3135 6L40.934 7.62054L39.3135 12L37.6929 7.62054L33.3135 6L37.6929 4.37946L39.3135 0Z" fill="#F18AB2"/>
</svg>
