<svg width="162" height="29" viewBox="0 0 162 29" xmlns="http://www.w3.org/2000/svg"><title>Grammarly Blog Logo</title><g fill="none" fill-rule="evenodd"><path d="M37.42 20.95c-.447-.17-.739-.53-.739-1.01 0-.581.48-1.06 1.065-1.06.172 0 .309.034.429.085a5.966 5.966 0 0 0 2.542.548c1.786 0 2.627-.855 2.627-2.499v-.445c-.773.925-1.614 1.49-3.005 1.49-2.147 0-4.088-1.558-4.088-4.28v-.033c0-2.739 1.975-4.279 4.088-4.279 1.425 0 2.267.6 2.97 1.37v-.018a1.3 1.3 0 0 1 1.306-1.283c.721 0 1.305.581 1.305 1.3v5.905c0 1.643-.395 2.84-1.168 3.61-.858.856-2.181 1.233-3.966 1.233a8.841 8.841 0 0 1-3.366-.634zm5.924-7.17v-.034c0-1.25-.979-2.123-2.25-2.123-1.27 0-2.232.873-2.232 2.123v.034c0 1.266.962 2.122 2.232 2.122 1.271 0 2.25-.873 2.25-2.122zm4.053-2.944c0-.719.584-1.3 1.306-1.3.72 0 1.304.581 1.304 1.3v.41c.379-.889.996-1.71 1.77-1.71.807 0 1.27.53 1.27 1.265 0 .685-.446 1.096-.978 1.216-1.323.308-2.062 1.318-2.062 3.166v2.43c0 .719-.583 1.301-1.304 1.301a1.302 1.302 0 0 1-1.306-1.3v-6.778m5.342 5.34v-.034c0-2.003 1.527-2.927 3.71-2.927.926 0 1.596.154 2.249.376v-.154c0-1.078-.67-1.677-1.975-1.677a6.01 6.01 0 0 0-1.804.257 1.107 1.107 0 0 1-.377.069 1.062 1.062 0 0 1-1.082-1.062c0-.462.291-.855.704-1.01.824-.308 1.717-.478 2.936-.478 1.426 0 2.456.376 3.109 1.026.687.684.996 1.695.996 2.927v4.175c0 .702-.567 1.25-1.271 1.25-.756 0-1.253-.53-1.253-1.078v-.018c-.636.702-1.512 1.164-2.783 1.164-1.734 0-3.16-.992-3.16-2.806zm5.993-.6v-.461a4.062 4.062 0 0 0-1.666-.343c-1.116 0-1.803.445-1.803 1.267v.034c0 .702.584 1.112 1.425 1.112 1.22 0 2.044-.667 2.044-1.608zm3.865-4.74c0-.719.583-1.3 1.305-1.3.721 0 1.305.581 1.305 1.3v.103c.6-.77 1.391-1.472 2.713-1.472 1.202 0 2.113.53 2.593 1.455.808-.941 1.77-1.455 3.023-1.455 1.94 0 3.108 1.164 3.108 3.372v4.774c0 .719-.584 1.301-1.305 1.301a1.303 1.303 0 0 1-1.305-1.3v-3.92c0-1.232-.55-1.865-1.528-1.865-.98 0-1.58.633-1.58 1.865v3.92c0 .718-.584 1.3-1.306 1.3a1.303 1.303 0 0 1-1.305-1.3v-3.92c0-1.232-.549-1.865-1.528-1.865-.98 0-1.58.633-1.58 1.865v3.92c0 .718-.584 1.3-1.305 1.3a1.302 1.302 0 0 1-1.305-1.3v-6.778m15.456 0c0-.719.584-1.3 1.306-1.3.72 0 1.305.581 1.305 1.3v.103c.6-.77 1.39-1.472 2.713-1.472 1.202 0 2.112.53 2.593 1.455.807-.941 1.769-1.455 3.022-1.455 1.941 0 3.109 1.164 3.109 3.372v4.774c0 .719-.584 1.301-1.305 1.301a1.303 1.303 0 0 1-1.306-1.3v-3.92c0-1.232-.55-1.865-1.528-1.865-.979 0-1.58.633-1.58 1.865v3.92c0 .718-.583 1.3-1.305 1.3a1.302 1.302 0 0 1-1.305-1.3v-3.92c0-1.232-.55-1.865-1.529-1.865-.979 0-1.579.633-1.579 1.865v3.92c0 .718-.584 1.3-1.305 1.3a1.302 1.302 0 0 1-1.306-1.3v-6.778m14.907 5.34v-.034c0-2.003 1.529-2.927 3.71-2.927a6.56 6.56 0 0 1 2.25.376v-.154c0-1.078-.67-1.677-1.976-1.677-.721 0-1.305.103-1.803.257a1.107 1.107 0 0 1-.377.069 1.061 1.061 0 0 1-1.082-1.062c0-.462.292-.855.703-1.01.825-.308 1.718-.478 2.937-.478 1.426 0 2.456.376 3.108 1.026.688.684.996 1.695.996 2.927v4.175a1.25 1.25 0 0 1-1.27 1.25c-.756 0-1.254-.53-1.254-1.078v-.018c-.635.702-1.511 1.164-2.781 1.164-1.736 0-3.16-.992-3.16-2.806zm5.994-.6v-.461a4.063 4.063 0 0 0-1.666-.343c-1.117 0-1.803.445-1.803 1.267v.034c0 .702.583 1.112 1.425 1.112 1.22 0 2.044-.667 2.044-1.608zm3.864-4.74c0-.719.584-1.3 1.305-1.3.722 0 1.306.581 1.306 1.3v.41c.377-.889.996-1.71 1.769-1.71.807 0 1.27.53 1.27 1.265 0 .685-.447 1.096-.979 1.216-1.322.308-2.06 1.318-2.06 3.166v2.43c0 .719-.584 1.301-1.306 1.301a1.303 1.303 0 0 1-1.305-1.3v-6.778m6.441-3.32c0-.72.583-1.3 1.304-1.3.722 0 1.306.58 1.306 1.3v10.097c0 .719-.584 1.301-1.306 1.301a1.302 1.302 0 0 1-1.304-1.3V7.515m4.688 13.846c-.378-.136-.824-.445-.824-1.077a1.04 1.04 0 0 1 1.03-1.062c.206 0 .326.034.43.068.223.069.36.104.55.104.463 0 .686-.086.926-.549l.086-.205-3.142-7.256a1.888 1.888 0 0 1-.138-.6c0-.735.567-1.248 1.288-1.248.653 0 1.03.359 1.253.974l1.993 5.34 1.923-5.322c.206-.547.583-.992 1.254-.992.67 0 1.236.513 1.236 1.198 0 .205-.069.496-.12.616l-3.212 7.684c-.772 1.865-1.545 2.567-3.108 2.567-.584 0-.996-.085-1.425-.24" fill="#4C4C4C"/><path d="M29.028 14.214c0 7.85-6.385 14.214-14.263 14.214-7.877 0-14.263-6.364-14.263-14.214C.502 6.364 6.888 0 14.765 0c7.878 0 14.263 6.364 14.263 14.214" fill="#15C39A"/><path d="M17.58 16.14a.965.965 0 0 0-.95 1.143c.084.465.523.784.997.784h1.495l.866-.12c-1.386 2.026-3.793 2.958-6.424 2.547-2.142-.335-3.982-1.78-4.758-3.797-1.763-4.579 1.593-8.95 5.965-8.95 2.28 0 4.277 1.329 5.423 2.935l.002.034a.973.973 0 0 0 1.345.26.948.948 0 0 0 .281-1.266h.007a8.377 8.377 0 0 0-7.636-3.83c-4.17.279-7.545 3.68-7.785 7.838-.279 4.84 3.573 8.79 8.363 8.79a8.304 8.304 0 0 0 6.305-2.859l-.182 1.014v.916c0 .472.32.91.786.994a.967.967 0 0 0 1.147-.947V16.14h-5.248" fill="#FFF"/><path d="M126 17.421V7.303a1.303 1.303 0 1 1 2.607 0v3.447c.634-.857 1.509-1.492 2.864-1.492 2.143 0 4.184 1.681 4.184 4.75 0 3.105-2.006 4.785-4.184 4.785-1.39 0-2.247-.634-2.864-1.372a1.303 1.303 0 1 1-2.607 0zm4.802-.84c1.217 0 2.246-.995 2.246-2.538v-.034c0-1.527-1.029-2.538-2.246-2.538-1.218 0-2.23 1.011-2.23 2.538v.034c0 1.526 1.012 2.538 2.23 2.538zm6.225.84V7.303a1.303 1.303 0 1 1 2.607 0v10.118a1.303 1.303 0 1 1-2.607 0zm9.01 1.407c-2.846 0-4.956-2.11-4.956-4.75v-.035c0-2.641 2.127-4.785 4.99-4.785 2.847 0 4.957 2.11 4.957 4.75v.035c0 2.641-2.127 4.785-4.99 4.785zm.035-2.247c1.492 0 2.383-1.149 2.383-2.504v-.034c0-1.355-.977-2.538-2.418-2.538-1.492 0-2.383 1.149-2.383 2.504v.034c0 1.355.977 2.538 2.418 2.538zm10.513 4.819a8.813 8.813 0 0 1-3.36-.635c-.447-.171-.738-.531-.738-1.011a1.069 1.069 0 0 1 1.492-.978 5.94 5.94 0 0 0 2.538.549c1.783 0 2.624-.858 2.624-2.504v-.446c-.772.926-1.612 1.492-3.002 1.492-2.143 0-4.081-1.56-4.081-4.287 0-2.778 1.972-4.322 4.081-4.322 1.424 0 2.264.6 2.967 1.372a1.303 1.303 0 1 1 2.607 0v5.917c0 1.646-.394 2.847-1.166 3.618-.858.858-2.178 1.235-3.962 1.235zm.31-5.694c1.268 0 2.246-.874 2.246-2.126v-.034c0-1.252-.978-2.127-2.247-2.127s-2.23.875-2.23 2.127v.034c0 1.269.961 2.126 2.23 2.126z" fill="#15C39A"/></g></svg>