<svg width="19" height="16" viewBox="0 0 19 16" xmlns="http://www.w3.org/2000/svg"><title>Twitter</title><path d="M19 1.874a7.614 7.614 0 0 1-2.238.63A3.988 3.988 0 0 0 18.476.292a7.677 7.677 0 0 1-2.477.968A3.844 3.844 0 0 0 13.154 0c-2.151 0-3.897 1.79-3.897 3.997 0 .313.034.617.1.91C6.119 4.74 3.248 3.151 1.324.73a4.07 4.07 0 0 0-.529 2.01c0 1.386.688 2.61 1.734 3.327a3.827 3.827 0 0 1-1.766-.499v.05c0 1.937 1.344 3.553 3.128 3.919a3.862 3.862 0 0 1-1.761.07c.496 1.587 1.935 2.743 3.641 2.774A7.697 7.697 0 0 1 0 14.039a10.853 10.853 0 0 0 5.975 1.794c7.171 0 11.091-6.09 11.091-11.372 0-.174-.003-.347-.01-.518A8 8 0 0 0 19 1.874" fill="#8189A9" fill-rule="evenodd"/></svg>